<mxfile host="app.diagrams.net" agent="Mozilla/5.0 (Windows NT 10.0; Win64; x64) AppleWebKit/537.36 (KHTML, like Gecko) Chrome/138.0.0.0 Safari/537.36 Edg/138.0.0.0" version="28.0.7">
  <diagram name="Page-1" id="qOGa6k0prF6S9AiGG4ZN">
    <mxGraphModel dx="1307" dy="1433" grid="0" gridSize="10" guides="1" tooltips="1" connect="1" arrows="1" fold="1" page="0" pageScale="1" pageWidth="1169" pageHeight="827" math="0" shadow="0">
      <root>
        <mxCell id="0" />
        <mxCell id="1" parent="0" />
        <mxCell id="4r1sQbtRIArTUO6_ECjI-1" value="ResQMob: Emergency Function" style="whiteSpace=wrap;strokeWidth=2;fillColor=#dae8fc;strokeColor=#000000;shadow=1;shadowOpacity=100;fixDash=0;shadowBlur=0;fontSize=20;backgroundOutline=0;comic=0;fontStyle=1;fontFamily=Verdana;" vertex="1" parent="1">
          <mxGeometry x="769" y="146" width="453" height="215" as="geometry" />
        </mxCell>
        <mxCell id="4r1sQbtRIArTUO6_ECjI-2" value="Mobile App User (Alert Sender)" style="whiteSpace=wrap;strokeWidth=2;shadow=1;fillColor=#dae8fc;strokeColor=#000000;shadowOpacity=100;fixDash=0;shadowBlur=0;fontSize=18;backgroundOutline=0;comic=0;fontFamily=Verdana;" vertex="1" parent="1">
          <mxGeometry x="351" y="287" width="200" height="64" as="geometry" />
        </mxCell>
        <mxCell id="4r1sQbtRIArTUO6_ECjI-3" value="Mobile App User (Responder)" style="whiteSpace=wrap;strokeWidth=2;shadow=1;fillColor=#dae8fc;strokeColor=#000000;shadowOpacity=100;fixDash=0;shadowBlur=0;fontSize=18;backgroundOutline=0;comic=0;fontFamily=Verdana;" vertex="1" parent="1">
          <mxGeometry x="354" y="167.5" width="194" height="61" as="geometry" />
        </mxCell>
        <mxCell id="4r1sQbtRIArTUO6_ECjI-4" value="Admin Dashboard" style="whiteSpace=wrap;strokeWidth=2;fillColor=#dae8fc;strokeColor=#000000;shadow=1;shadowOpacity=100;fixDash=0;shadowBlur=0;fontSize=18;backgroundOutline=0;comic=0;fontFamily=Verdana;" vertex="1" parent="1">
          <mxGeometry x="1446" y="292" width="184" height="54" as="geometry" />
        </mxCell>
        <mxCell id="4r1sQbtRIArTUO6_ECjI-5" value="Emergency Contacts" style="whiteSpace=wrap;strokeWidth=2;fillColor=#dae8fc;strokeColor=#000000;shadow=1;shadowOpacity=100;fixDash=0;shadowBlur=0;fontSize=18;backgroundOutline=0;comic=0;fontFamily=Verdana;" vertex="1" parent="1">
          <mxGeometry x="1446" y="171" width="182.5" height="54" as="geometry" />
        </mxCell>
        <mxCell id="4r1sQbtRIArTUO6_ECjI-6" value="ML Prediction Service" style="whiteSpace=wrap;strokeWidth=2;fillColor=#dae8fc;strokeColor=#000000;shadow=1;shadowOpacity=100;fixDash=0;shadowBlur=0;fontSize=18;backgroundOutline=0;comic=0;fontFamily=Verdana;" vertex="1" parent="1">
          <mxGeometry x="785.5" y="-68" width="159" height="54" as="geometry" />
        </mxCell>
        <mxCell id="4r1sQbtRIArTUO6_ECjI-7" value="Maps API (Google Maps)" style="whiteSpace=wrap;strokeWidth=2;fillColor=#dae8fc;strokeColor=#000000;shadow=1;shadowOpacity=100;fixDash=0;shadowBlur=0;fontSize=18;backgroundOutline=0;comic=0;fontFamily=Verdana;" vertex="1" parent="1">
          <mxGeometry x="1043" y="-68" width="153" height="54" as="geometry" />
        </mxCell>
        <mxCell id="4r1sQbtRIArTUO6_ECjI-8" value="Notification Service &#xa;(Firebase Cloud Messaging)" style="whiteSpace=wrap;strokeWidth=2;fillColor=#dae8fc;strokeColor=#000000;shadow=1;shadowOpacity=100;fixDash=0;shadowBlur=0;fontSize=18;backgroundOutline=0;comic=0;fontFamily=Verdana;" vertex="1" parent="1">
          <mxGeometry x="766.25" y="511.5" width="197.5" height="80.5" as="geometry" />
        </mxCell>
        <mxCell id="4r1sQbtRIArTUO6_ECjI-9" value="Database &#xa;(Firebase/Supabase)" style="whiteSpace=wrap;strokeWidth=2;fillColor=#dae8fc;strokeColor=#000000;shadow=1;shadowOpacity=100;fixDash=0;shadowBlur=0;fontSize=18;backgroundOutline=0;comic=0;fontFamily=Verdana;" vertex="1" parent="1">
          <mxGeometry x="1030.5" y="509" width="197" height="78.5" as="geometry" />
        </mxCell>
        <mxCell id="4r1sQbtRIArTUO6_ECjI-10" value="Uses" style="startArrow=classic;endArrow=block;exitX=1;exitY=0.5;rounded=0;fontSize=18;startSize=8;endSize=8;exitDx=0;exitDy=0;fillColor=#dae8fc;strokeColor=#000000;shadow=1;shadowOpacity=100;fixDash=0;shadowBlur=0;backgroundOutline=0;comic=0;fontFamily=Verdana;startFill=1;" edge="1" parent="1" source="4r1sQbtRIArTUO6_ECjI-2" target="4r1sQbtRIArTUO6_ECjI-20">
          <mxGeometry relative="1" as="geometry">
            <mxPoint x="688" y="328" as="targetPoint" />
          </mxGeometry>
        </mxCell>
        <mxCell id="4r1sQbtRIArTUO6_ECjI-11" value="Uses" style="startArrow=classic;endArrow=block;exitX=1;exitY=0.5;rounded=0;fontSize=18;startSize=8;endSize=8;exitDx=0;exitDy=0;fillColor=#dae8fc;strokeColor=#000000;shadow=1;shadowOpacity=100;fixDash=0;shadowBlur=0;backgroundOutline=0;comic=0;fontFamily=Verdana;startFill=1;" edge="1" parent="1" source="4r1sQbtRIArTUO6_ECjI-3" target="4r1sQbtRIArTUO6_ECjI-23">
          <mxGeometry relative="1" as="geometry">
            <mxPoint x="727" y="184" as="targetPoint" />
          </mxGeometry>
        </mxCell>
        <mxCell id="4r1sQbtRIArTUO6_ECjI-12" value="Uses" style="startArrow=classic;endArrow=block;exitX=0;exitY=0.5;rounded=0;fontSize=18;startSize=8;endSize=8;exitDx=0;exitDy=0;entryX=0.5;entryY=0;entryDx=0;entryDy=0;fillColor=#dae8fc;strokeColor=#000000;shadow=1;shadowOpacity=100;fixDash=0;shadowBlur=0;backgroundOutline=0;comic=0;fontFamily=Verdana;startFill=1;" edge="1" parent="1" source="4r1sQbtRIArTUO6_ECjI-4" target="4r1sQbtRIArTUO6_ECjI-24">
          <mxGeometry relative="1" as="geometry">
            <mxPoint x="1260" y="205" as="targetPoint" />
          </mxGeometry>
        </mxCell>
        <mxCell id="4r1sQbtRIArTUO6_ECjI-13" value="Receives Alerts" style="startArrow=none;endArrow=block;exitX=0;exitY=0.5;rounded=0;fontSize=18;startSize=8;endSize=8;exitDx=0;exitDy=0;fillColor=#dae8fc;strokeColor=#000000;shadow=1;shadowOpacity=100;fixDash=0;shadowBlur=0;backgroundOutline=0;comic=0;fontFamily=Verdana;entryX=0.5;entryY=0;entryDx=0;entryDy=0;startFill=0;" edge="1" parent="1" source="4r1sQbtRIArTUO6_ECjI-5" target="4r1sQbtRIArTUO6_ECjI-25">
          <mxGeometry relative="1" as="geometry">
            <mxPoint x="1321" y="210" as="targetPoint" />
          </mxGeometry>
        </mxCell>
        <mxCell id="4r1sQbtRIArTUO6_ECjI-14" value="" style="startArrow=none;endArrow=block;exitX=0.5;exitY=1;rounded=0;fontSize=18;startSize=8;endSize=8;fillColor=#dae8fc;strokeColor=#000000;shadow=1;shadowOpacity=100;fixDash=0;shadowBlur=0;backgroundOutline=0;comic=0;fontFamily=Verdana;entryX=0.5;entryY=0;entryDx=0;entryDy=0;" edge="1" parent="1" source="4r1sQbtRIArTUO6_ECjI-6" target="4r1sQbtRIArTUO6_ECjI-21">
          <mxGeometry relative="1" as="geometry">
            <mxPoint x="931" y="44" as="targetPoint" />
          </mxGeometry>
        </mxCell>
        <mxCell id="4r1sQbtRIArTUO6_ECjI-15" value="" style="startArrow=none;endArrow=block;exitX=0.5;exitY=1;rounded=0;fontSize=18;startSize=8;endSize=8;exitDx=0;exitDy=0;fillColor=#dae8fc;strokeColor=#000000;shadow=1;shadowOpacity=100;fixDash=0;shadowBlur=0;backgroundOutline=0;comic=0;fontFamily=Verdana;entryX=0.5;entryY=0;entryDx=0;entryDy=0;" edge="1" parent="1" source="4r1sQbtRIArTUO6_ECjI-7" target="4r1sQbtRIArTUO6_ECjI-22">
          <mxGeometry relative="1" as="geometry">
            <mxPoint x="1520" y="-243" as="sourcePoint" />
            <mxPoint x="1151" y="53" as="targetPoint" />
          </mxGeometry>
        </mxCell>
        <mxCell id="4r1sQbtRIArTUO6_ECjI-16" value="" style="startArrow=classic;endArrow=block;exitX=0.5;exitY=0;rounded=0;fontSize=18;startSize=8;endSize=8;exitDx=0;exitDy=0;fillColor=#dae8fc;strokeColor=#000000;shadow=1;shadowOpacity=100;fixDash=0;shadowBlur=0;backgroundOutline=0;comic=0;fontFamily=Verdana;entryX=0.5;entryY=1;entryDx=0;entryDy=0;startFill=1;" edge="1" parent="1" source="4r1sQbtRIArTUO6_ECjI-8" target="4r1sQbtRIArTUO6_ECjI-27">
          <mxGeometry relative="1" as="geometry">
            <mxPoint x="936" y="452" as="targetPoint" />
          </mxGeometry>
        </mxCell>
        <mxCell id="4r1sQbtRIArTUO6_ECjI-17" value="" style="startArrow=classic;endArrow=block;exitX=0.5;exitY=0;rounded=0;fontSize=18;startSize=8;endSize=8;exitDx=0;exitDy=0;fillColor=#dae8fc;strokeColor=#000000;shadow=1;shadowOpacity=100;fixDash=0;shadowBlur=0;backgroundOutline=0;comic=0;fontFamily=Verdana;entryX=0.5;entryY=1;entryDx=0;entryDy=0;endFill=1;startFill=1;" edge="1" parent="1" source="4r1sQbtRIArTUO6_ECjI-9" target="4r1sQbtRIArTUO6_ECjI-28">
          <mxGeometry relative="1" as="geometry">
            <mxPoint x="1371.5" y="499" as="sourcePoint" />
            <mxPoint x="1149" y="418" as="targetPoint" />
          </mxGeometry>
        </mxCell>
        <mxCell id="4r1sQbtRIArTUO6_ECjI-20" value="" style="rounded=0;whiteSpace=wrap;html=1;fillColor=light-dark(#66B2FF,#198CC4);fontColor=#ffffff;strokeColor=#000000;rotation=90;strokeWidth=2;" vertex="1" parent="1">
          <mxGeometry x="747" y="305" width="53" height="28" as="geometry" />
        </mxCell>
        <mxCell id="4r1sQbtRIArTUO6_ECjI-21" value="" style="rounded=0;whiteSpace=wrap;html=1;fillColor=light-dark(#66B2FF,#198CC4);fontColor=#ffffff;strokeColor=#000000;rotation=0;strokeWidth=2;" vertex="1" parent="1">
          <mxGeometry x="827" y="128" width="76" height="28" as="geometry" />
        </mxCell>
        <mxCell id="4r1sQbtRIArTUO6_ECjI-22" value="" style="rounded=0;whiteSpace=wrap;html=1;fillColor=light-dark(#66B2FF,#198CC4);fontColor=#ffffff;strokeColor=#000000;rotation=0;strokeWidth=2;" vertex="1" parent="1">
          <mxGeometry x="1084" y="128" width="76" height="28" as="geometry" />
        </mxCell>
        <mxCell id="4r1sQbtRIArTUO6_ECjI-23" value="" style="rounded=0;whiteSpace=wrap;html=1;fillColor=light-dark(#66B2FF,#198CC4);fontColor=#ffffff;strokeColor=#000000;rotation=90;strokeWidth=2;" vertex="1" parent="1">
          <mxGeometry x="747" y="184" width="53" height="28" as="geometry" />
        </mxCell>
        <mxCell id="4r1sQbtRIArTUO6_ECjI-24" value="" style="rounded=0;whiteSpace=wrap;html=1;fillColor=light-dark(#66B2FF,#198CC4);fontColor=#ffffff;strokeColor=#000000;rotation=90;strokeWidth=2;" vertex="1" parent="1">
          <mxGeometry x="1193" y="305" width="53" height="28" as="geometry" />
        </mxCell>
        <mxCell id="4r1sQbtRIArTUO6_ECjI-25" value="" style="rounded=0;whiteSpace=wrap;html=1;fillColor=light-dark(#66B2FF,#198CC4);fontColor=#ffffff;strokeColor=#000000;rotation=90;strokeWidth=2;" vertex="1" parent="1">
          <mxGeometry x="1193" y="184" width="53" height="28" as="geometry" />
        </mxCell>
        <mxCell id="4r1sQbtRIArTUO6_ECjI-27" value="" style="rounded=0;whiteSpace=wrap;html=1;fillColor=light-dark(#66B2FF,#198CC4);fontColor=#ffffff;strokeColor=#000000;rotation=0;strokeWidth=2;" vertex="1" parent="1">
          <mxGeometry x="827" y="342" width="76" height="28" as="geometry" />
        </mxCell>
        <mxCell id="4r1sQbtRIArTUO6_ECjI-28" value="" style="rounded=0;whiteSpace=wrap;html=1;fillColor=light-dark(#66B2FF,#198CC4);fontColor=#ffffff;strokeColor=#000000;rotation=0;strokeWidth=2;" vertex="1" parent="1">
          <mxGeometry x="1091" y="342" width="76" height="28" as="geometry" />
        </mxCell>
      </root>
    </mxGraphModel>
  </diagram>
</mxfile>
